<?xml version="1.0" standalone="no"?><!DOCTYPE svg PUBLIC "-//W3C//DTD SVG 1.1//EN" "http://www.w3.org/Graphics/SVG/1.1/DTD/svg11.dtd"><svg t="1588214868389" class="icon" viewBox="0 0 1024 1024" version="1.1" xmlns="http://www.w3.org/2000/svg" p-id="3311" xmlns:xlink="http://www.w3.org/1999/xlink" width="800" height="800"><defs><style type="text/css"></style></defs><path d="M800 531.52a32 32 0 0 1 64 0v305.92A90.56 90.56 0 0 1 773.44 928H186.88A90.88 90.88 0 0 1 96 837.44V250.88A90.88 90.88 0 0 1 186.88 160h288a32 32 0 0 1 0 64h-288a26.56 26.56 0 0 0-26.88 26.88v586.56a26.56 26.56 0 0 0 26.88 26.56h586.56a26.56 26.56 0 0 0 26.56-26.56z" p-id="3312" fill="#ffffff"></path><path d="M825.28 209.92l-43.2-43.2-405.12 405.12-13.76 56.96 56.96-13.76zM444.16 675.2l-116.8 28.8A32 32 0 0 1 288 664.64l28.16-116.8a32 32 0 0 1 8.32-15.04L748.48 109.76a48 48 0 0 1 67.2 0l66.56 66.88a47.68 47.68 0 0 1 0 66.88L459.2 666.56a33.92 33.92 0 0 1-15.04 8.64z" p-id="3313" fill="#ffffff"></path></svg>